<svg xmlns="http://www.w3.org/2000/svg" viewBox="0 0 2000 2000" id="BoywinOnlinegamingcompetition"><g style="isolation:isolate" fill="#000000" class="color000000 svgShape"><g fill="#000000" class="color000000 svgShape"><rect width="411.76" height="407.41" x="1376.45" y="364.69" fill="#e3eeff" class="colore8e3ff svgShape"></rect><rect width="411.76" height="407.41" x="922.48" y="364.69" fill="#e3eeff" class="colore8e3ff svgShape"></rect><rect width="411.76" height="407.41" x="1376.45" y="807.99" fill="#e3eeff" class="colore8e3ff svgShape"></rect><rect width="411.76" height="407.41" x="922.48" y="807.99" fill="#e3eeff" class="colore8e3ff svgShape"></rect><rect width="38.51" height="166.61" x="667.84" y="1497.35" fill="#707070" class="color707070 svgShape"></rect><polygon fill="#393939" points="725.72 1534.62 645.8 1534.62 634.88 1462.34 736.64 1462.34 725.72 1534.62" class="color393939 svgShape"></polygon><rect width="58.85" height="75.32" x="657.65" y="1625.42" fill="#393939" class="color393939 svgShape"></rect><rect width="58.85" height="75.32" x="657.65" y="1468.21" fill="#393939" class="color393939 svgShape"></rect><rect width="78.68" height="78.6" x="647.73" y="1656.8" fill="#393939" class="color393939 svgShape"></rect><path fill="#393939" d="M728.26,1732.19H646.69l-203.61,37.24a24.39,24.39,0,0,0-20.05,24v12.5l1.46,1.45q11.65,11.61,23.28,23.26h15.91v-30.52l216.18-34.24L939,1800.08v30.52h40.65V1800A31.69,31.69,0,0,0,953,1768.76Z" class="color393939 svgShape"></path><ellipse cx="419.1" cy="1840.5" fill="#393939" rx="34.46" ry="34.31" class="color393939 svgShape"></ellipse><ellipse cx="419.1" cy="1840.5" fill="#4285f4" rx="22.34" ry="22.25" class="color4d7aff svgShape"></ellipse><ellipse cx="419.1" cy="1840.5" fill="#393939" rx="15.14" ry="15.07" class="color393939 svgShape"></ellipse><ellipse cx="983.28" cy="1840.5" fill="#393939" rx="34.46" ry="34.31" class="color393939 svgShape"></ellipse><ellipse cx="983.28" cy="1840.5" fill="#4285f4" rx="22.34" ry="22.25" class="color4d7aff svgShape"></ellipse><ellipse cx="983.28" cy="1840.5" fill="#393939" rx="15.14" ry="15.07" class="color393939 svgShape"></ellipse><path fill="#707070" d="M709.69,1732.19h-32v38.31L822,1800.08v-4.66A31.32,31.32,0,0,0,801.44,1766Z" class="color707070 svgShape"></path><rect width="39.81" height="57.85" x="782.03" y="1794.21" fill="#707070" class="color707070 svgShape"></rect><path fill="#393939" d="M812.4,1799.76v-2.17a30,30,0,0,0-20-28l-105.19-37.35h-32v35.4l126.5,26.15v58.32H812.6v-52.23Z" class="color393939 svgShape"></path><ellipse cx="819.47" cy="1844.6" fill="#393939" rx="25.98" ry="34.31" class="color393939 svgShape"></ellipse><ellipse cx="819.47" cy="1844.6" fill="#393939" rx="16.84" ry="22.25" class="color393939 svgShape"></ellipse><ellipse cx="819.47" cy="1844.6" fill="#393939" rx="11.41" ry="15.07" class="color393939 svgShape"></ellipse><ellipse cx="807.15" cy="1844.6" fill="#393939" rx="25.98" ry="34.31" class="color393939 svgShape"></ellipse><ellipse cx="807.15" cy="1844.6" fill="#4285f4" rx="16.84" ry="22.25" class="color4d7aff svgShape"></ellipse><ellipse cx="807.15" cy="1844.6" fill="#393939" rx="11.41" ry="15.07" class="color393939 svgShape"></ellipse><path fill="#393939" d="M529.1,1554.08l-3.46-2.22,33.43-52a48.51,48.51,0,0,1,40.18-21.26h78.17v4.11H599.25a44.39,44.39,0,0,0-36.76,19.41Z" class="color393939 svgShape"></path><path fill="#393939" d="M531.46,1535.51l12.87,7-15.78,42.17c-10.54,18.66-37.12,3.78-26.57-14.88Z" class="color393939 svgShape"></path><path fill="#5e5e5e" d="M506.71,1361s-23.82,75.35,50.46,76.75,245.28,0,245.28,0,44.85-23.73,14-76.75S527.74,1323.29,506.71,1361Z" class="color5e5e5e svgShape"></path><path fill="#393939" d="M803.05,1339.59l-19.43-85.24a17.58,17.58,0,0,1,12.27-20.78h0a17.68,17.68,0,0,1,21.66,11.13l37.9,109Z" class="color393939 svgShape"></path><path fill="#393939" d="M796.31,1341l-19.43-85.24A17.59,17.59,0,0,1,789.15,1235h0a17.69,17.69,0,0,1,21.67,11.13l37.89,109Z" class="color393939 svgShape"></path><path fill="#393939" d="M802.14,1345l-20.26-88.87a13.26,13.26,0,0,1,25.46-7.24l32.87,94.55Z" class="color393939 svgShape"></path><ellipse cx="827.98" cy="1385.61" fill="#393939" rx="40.99" ry="58.93" transform="rotate(-16.51 828.11 1385.774)" class="color393939 svgShape"></ellipse><ellipse cx="833.35" cy="1384.04" fill="#393939" rx="40.99" ry="58.93" transform="rotate(-16.51 833.477 1384.195)" class="color393939 svgShape"></ellipse><ellipse cx="822.68" cy="1386.37" fill="#393939" rx="32.94" ry="47.35" transform="rotate(-16.51 822.795 1386.516)" class="color393939 svgShape"></ellipse><path fill="#525252" d="M524.85,1411.81l282.42-44.46c14.07-21.18,17.31-51.21,5.82-79.8-31.45-78.36-48.53-151.25-50.45-230-.59-24.43-12.36-49.21-31.34-66.65l-58.17-53.43A100.83,100.83,0,0,1,651,907.88l-27.5-55.82c-1.12-2.28-2.12-4.6-3.06-6.92-15-37.3-145.23-32-178.7-.3-5.65,5.35-8.43,11.42-7.27,18.1.43,2.51.79,5,1,7.53l5.16,62.45a74,74,0,0,1-4.91,34l-28.07,69.5c-9.82,24.31-9.58,56.08,9.41,78.47,52.76,62.19,79.94,138.9,84.45,248.63C502.3,1382.49,513.22,1398.81,524.85,1411.81Z" class="color525252 svgShape"></path><path fill="#bababa" d="M503.93,1415.1l91.29-12.88c-39.23-.32-36.69-74.52-40.11-107.08-5.39-51.45-44.63-108.22-78.56-143.43-34.2-35.52-50.84-84.63-42.72-107.84,8.05-23,34.82-83.6,13.32-151.09-7.18-22.52-7.77-37.71-5.41-47.94-5.65,5.35-8.43,11.42-7.27,18.1.43,2.51.79,5,1,7.53l5.16,62.45a74,74,0,0,1-4.91,34l-28.07,69.5c-9.82,24.31-9.51,56,9.41,78.47,52.4,62.17,79.72,138.59,84.45,248.63C502.2,1379.46,504.23,1401.92,503.93,1415.1Z" class="colorbababa svgShape"></path><path fill="#5e5e5e" d="M485.89,918.25s30.81,14.59,81.48,3c49.1-11.21,55.87-23.44,55.87-23.44s-.41,41.71-45,51.14C513.57,962.66,485.89,918.25,485.89,918.25Z" class="color5e5e5e svgShape"></path><path fill="#404040" d="M601,1284c4.33,36.16-1.58,121.91-7.58,117L811,1366.77c6.42-24.18-3.85-59.13-31.32-75.78-38.71-23.46-41.5-114.19-50.25-166.55C706.14,985,486.69,982,515.7,1124.41,520.91,1150,593.51,1221.45,601,1284Z" class="color404040 svgShape"></path><path fill="#4285f4" d="M714.68,1062.79C680.36,989,622.39,957.25,622.28,957l.11.21s58.5,59.64,70.77,166.36c5.12,44.59,16.93,170.4,89.22,213.34C719.56,1235.86,743.85,1125.48,714.68,1062.79Z" class="color4d7aff svgShape"></path><path fill="#bababa" d="M513.69 985s-50.17 96.37 37.59 197.42c0 0 64.66 78.29 48.18 170.91 25.69-44.4 23-124.11-25.77-186.86C501.18 1073.12 513.69 985 513.69 985zM461.54 833.27S459.1 862 481.28 901.72c10.68 19.12 112 23.72 137.53-15.61 0 0-7.24-48.58-32.51-63.65C556.23 804.51 472 816.75 461.54 833.27z" class="colorbababa svgShape"></path><path fill="#bababa" d="M979.78,1423c8.55,36.12-4.79,47.49-30.88,47.49h-403c-17.3,0-32.26-11.6-39.44-28.48a57.85,57.85,0,0,1-4.53-22.63c0-.39,0-.78,0-1.17,0-42.64,55.33-88.22,128.64-66,77.19,23.37,150.88,21.53,188.78-.91C886.76,1311.36,970.66,1382.18,979.78,1423Z" class="colorbababa svgShape"></path><path fill="#5e5e5e" d="M785,1470.53H545.85c-17.3,0-32.26-11.6-39.44-28.48.19-.76.38-1.52.58-2.29,1.27-4.83,1.37-35.59,49.64-52.13C634.15,1361.06,671.54,1461.18,785,1470.53Z" class="color5e5e5e svgShape"></path><path fill="#393939" d="M484.35,1358.57l-29.79-89.45a19,19,0,0,1,11-23.58h0a19.09,19.09,0,0,1,24.42,9.7l52.1,113Z" class="color393939 svgShape"></path><path fill="#808080" d="M477.26,1360.76l-29.79-89.45a19,19,0,0,1,11-23.58h0a19.09,19.09,0,0,1,24.42,9.7l52.09,113Z" class="color808080 svgShape"></path><path fill="#393939" d="M483.47,1365.23l-31.24-93.8a15,15,0,0,1,27.83-10.92l45.58,98.88Zm-17-112a13.81,13.81,0,0,0-5.08,1,13.56,13.56,0,0,0-7.84,16.84l30.88,92.72,39.22-5.43-44.81-97.21A13.62,13.62,0,0,0,466.45,1253.18Z" class="color393939 svgShape"></path><ellipse cx="509.3" cy="1403.77" fill="#393939" rx="44.21" ry="63.51" class="color393939 svgShape"></ellipse><ellipse cx="515.34" cy="1403.77" fill="#393939" rx="44.21" ry="63.51" class="color393939 svgShape"></ellipse><ellipse cx="503.59" cy="1402.95" fill="#808080" rx="35.53" ry="51.04" class="color808080 svgShape"></ellipse><ellipse cx="494.59" cy="1402.2" fill="#ea4335" rx="21.55" ry="30.96" class="colorf32d2e svgShape"></ellipse><path fill="#eb867e" d="M963.18,1172.32s165.56-34.06,217.35-17.91,140,249.61,140,249.61l-35,44.11L1152.6,1253.6,926.2,1326Z" class="coloreb917e svgShape"></path><path fill="#236134" d="M698.68,1297.32s50.75,90.55,104.19,81.6,248.62-75.78,248.62-75.78c-34.26-6.5-43.74-125.66-9.45-156l-207.3,63.64Z" class="color262361 svgShape"></path><path fill="#3c64a6" d="M1017.23,1146s-29.54,23-18.91,86.84,26.59,74.43,37.81,76.8,45.79-18,28.19-28.76c-13.58,1.77-28.43-25.77-32-59.45s4.59-64.45,12.86-63.27l16.69-2.78S1068.15,1132.79,1017.23,1146Z" class="color413ca6 svgShape"></path><path fill="#5d9aff" d="M1482.21,1462.51c-17.11,33.29-91.86,51.46-156.71,53-7.73-1.9-14.08-7.25-18.21-14-5.74-9.41-14-16.66-8.87-26.31-29-13.31,46-63.26,61.52-46.22l47-6.83s.28-.32.84-.88c4.11-4.21,22.76-21.75,42.24-15.17C1498.3,1422.38,1482.21,1462.51,1482.21,1462.51Z" class="color645dff svgShape"></path><path fill="#3c64a6" d="M1486.15,1461.55c-17.53,34.11-94.12,52.73-160.56,54.36-7.93-2-14.44-7.43-18.66-14.38,17.49.59,81.42,4.32,125.06-17.35-21.62-18-27.12-45.83-22-64.86,4.21-4.32,23.32-22.29,43.27-15.54C1502.64,1420.43,1486.15,1461.55,1486.15,1461.55Z" class="color413ca6 svgShape"></path><path fill="#3c64a6" d="M1355.5 1463.68a3.34 3.34 0 01-2.54-5.5h0c3.36-4 11.77-16.14 10.26-24.78a3.34 3.34 0 016.58-1.15c2.34 13.5-11.18 29.57-11.76 30.25A3.32 3.32 0 011355.5 1463.68zM1376.31 1460.7a3.34 3.34 0 01-3.33-3.08c0-.51-.83-12.65 7.41-28.78a3.34 3.34 0 115.94 3c-7.33 14.34-6.7 25.14-6.69 25.25a3.34 3.34 0 01-3.09 3.56zM1395.79 1459a3.34 3.34 0 01-3-1.93c-.23-.5-5.55-12.38 3-30.34a3.33 3.33 0 116 2.87c-7.23 15.16-3 24.56-3 24.66a3.34 3.34 0 01-1.62 4.43A3.39 3.39 0 011395.79 1459z" class="color413ca6 svgShape"></path><path fill="#ffffff" d="M1300.47,1351.07l19.24,34.28,25.15,44.82c7.48,8-23.17,37.19-44.17,36.84l-1.28-1.47-35.14-40.35-20.55-23.59Z" class="colorffffff svgShape"></path><path fill="#ffffff" d="M1298.15,1331.93s23.13,40.48,24,46.14c.41,2.52.44,4.1-2.48,7.28-3.6,3.88-11.63,10.16-28.82,23.54-4.16,3.24-7.84,5.89-11.08,8.06-7,4.71-12,7.12-15.54,8.24-7,2.24-8.16-.61-8.16-.61s-30.24-30.65-35.09-38.09.51-10.44.51-10.44l6.67,7.27c12.77.9,41.66-20.13,55.9-34.49,4.3-4.35,7.29-8.08,8.07-10.42,0,0-1.05-3.12-6.19-10.88A12.36,12.36,0,0,1,1298.15,1331.93Z" class="colorffffff svgShape"></path><path fill="#e6efff" d="M1298.15,1331.93s23.13,40.48,24,46.14c.41,2.52.44,4.1-2.48,7.28l25.15,44.82c7.48,8-23.17,37.19-44.17,36.84l-1.28-1.47c6.62-4.42,28.49-18.84,30.29-32,1.09-7.9-8.5-20.49-17.57-23.7-8.86-3.12-23.87,6.07-32.32,7.06a37.37,37.37,0,0,0-3.85.62c19.41-10.94,26.08-25.76,29.08-31.4,1.38-2.58-5.72-14.59-13.84-26.85-2.34-3.54-4.77-7.11-7.1-10.49,4.3-4.35,7.29-8.08,8.07-10.42,0,0-1.05-3.12-6.19-10.88A12.36,12.36,0,0,1,1298.15,1331.93Z" class="colore6f2ff svgShape"></path><path fill="#eb867e" d="M928.72 500.83s.31-26.52 11.46-44.93c0 0 2.42-14 30.52.48s14.53 23.26 14.53 23.26S972.15 491.26 962 500 936.16 516.7 928.72 500.83zM888.94 1286.5s156.9 70.78 185.57 134.19-47.42 301.66-47.42 301.66L976 1708.52l2.33-239L814.59 1390.2z" class="coloreb917e svgShape"></path><path fill="#236134" d="M650.9,1235.71s-20.34,82.39,45.77,129.17c40.25,28.48,200.91,76.24,200.91,76.24-50.74-63.93,43.93-136.29,84.28-110.45-17.76-30.48-123.15-73.47-156-83.73Z" class="color262361 svgShape"></path><path fill="#4675c2" d="M869.09,1440s-17.26-22.86-.71-59.73c17.48-38.94,48.88-68.56,81.89-69.83,0,0,9.56-7.18,40.6,16.88,5.82,5,2.33,15.91,2.33,15.91s-18.11-7.82-36.14-6.37c-22.68,1.81-64.86,29-64,76.2.31,15.69,14.33,20.6,14.33,20.6s-3.86,14.34-12.78,15.11S869.09,1440,869.09,1440Z" class="color4c46c2 svgShape"></path><path fill="#4675c2" d="M955,1312.73l-77.17-33.89a1.11,1.11,0,0,1,.55-2.13c.12,0,12.38,1,19.84-5.75,3.75-3.38,5.7-8.19,5.78-14.29l2.24,0c-.1,6.75-2.3,12.11-6.53,15.93-5,4.49-11.65,5.87-16.25,6.25l72.43,31.81Z" class="color4c46c2 svgShape"></path><path fill="#eb867e" d="M918.22,877.24S976.21,782,991,740.7s-28.2-242.4-28.2-242.4l-34.12,2.53-4.18,210.26L799.88,835.37Z" class="coloreb917e svgShape"></path><path fill="#4b7dd1" d="M851.39,771.38,781.94,863l-17.36,22.89.13,7.28C733.94,925,801.66,1025.38,860.91,977c29.74-24.3,86.66-141.77,86.66-141.77C933,794.1,895.32,779.21,851.39,771.38Z" class="color524bd1 svgShape"></path><path fill="#fbbc05" d="M929.81 447.76c21.71-27.39 24.89-59.67 9.18-93.36A150.65 150.65 0 00908.87 312a4.6 4.6 0 00-6.77.5l-30.72 38.76 7.24 5.74 27.46-34.65a145.08 145.08 0 0124.65 36.19c14.2 30.64 11.45 58.72-8.16 83.47zM926.32 452.17l-7.24-5.74c-19.62 24.75-46.34 33.83-79.42 27a144.91 144.91 0 01-40.85-15.73l27.46-34.64L819 417.33l-30.71 38.75a4.61 4.61 0 001.05 6.71 150.65 150.65 0 0048.16 19.64C873.9 490 904.61 479.56 926.32 452.17z" class="colorfbc81d svgShape"></path><path fill="#fbbc05" d="M874.71,318.23c48.11,44.58,92.61,121.14,72.93,146.77s-103.55.3-159-38.22Z" class="colorfbc81d svgShape"></path><g style="mix-blend-mode:soft-light" opacity=".8" fill="#000000" class="color000000 svgShape"><path fill="#ffffff" d="M881.36,335.57,860.65,361.7c43.51,30.8,69.79,63.69,84.88,97.95C948,421,924,379.36,881.36,335.57Z" class="colorffffff svgShape"></path></g><path fill="#fbbc05" d="M978,538.09l47.24-59.61c-21.9,3.33-38.32,4.44-78.52-24.45l-10.46,13.2C974.38,498.6,976,514.82,978,538.09Z" class="colorfbc81d svgShape"></path><path fill="#2e2e2e" d="M1105.49,504.07l-77.12,107.72L972.72,562a7.49,7.49,0,0,1-1.1-9.94l59.08-82.51a7.46,7.46,0,0,1,9.75-2.16Z" class="color2e2e2e svgShape"></path><rect width="83.28" height="46.11" x="992.98" y="511.74" fill="#858585" rx="4.15" transform="rotate(-54.4 1034.635 534.793)" class="color858585 svgShape"></rect><path fill="#bababa" d="M998.9 552.53A2 2 0 11996 553 2.05 2.05 0 01998.9 552.53zM1029.56 574.47a2.05 2.05 0 11-2.86.48A2.06 2.06 0 011029.56 574.47zM1042.28 491.94a2.05 2.05 0 11-2.86.47A2 2 0 011042.28 491.94zM1072.93 513.89a2 2 0 11-2.86.47A2 2 0 011072.93 513.89z" class="colorbababa svgShape"></path><path fill="#2e2e2e" d="M1025.2 479.15L978.91 543.8h0a6.48 6.48 0 01-1.5-9l38.73-54.1a6.49 6.49 0 019.06-1.5zM1114 509.35l-77.88 108.78a4.86 4.86 0 01-6.78 1.13h0a4.87 4.87 0 01-1.12-6.79l77.88-108.78a4.86 4.86 0 016.78-1.12h0A4.85 4.85 0 011114 509.35z" class="color2e2e2e svgShape"></path><path fill="#416cb3" d="M911.42,778.31c-38.92-20-56.9-16.72-61.52-13.64S833.71,784.33,833.71,787s2.7,7.32,2.7,7.32c.38-1.16,39.31-2.7,64.36,15s35.84,48.18,35.84,48.18,3,2.61,6.46,1.7,14.36-27.53,14.36-27.53C957.81,824.41,950.35,798.35,911.42,778.31Z" class="color4641b3 svgShape"></path><path fill="#eb867e" d="M949.12,449.64s-1.18,10.87.42,19.68,12.69,19.1,26.91,14.49,8.81-14.81,7.61-16.61S959.53,447.64,949.12,449.64Z" class="coloreb917e svgShape"></path><path fill="#ffffff" d="M882.4,385c-10.53,7.16-17.77,16.06-20.53,27.3a11.63,11.63,0,0,1-16.22,2.3h0a11.62,11.62,0,0,1-2.29-16.22l20.53-27.3a11.62,11.62,0,0,1,16.22-2.29h0A11.61,11.61,0,0,1,882.4,385Z" class="colorffffff svgShape"></path><path fill="#ffffff" d="M866 425.82h0a8.39 8.39 0 01-10.54-1l-9.74-10.32c-4.18-4.43-4.31-11.26.3-14.66h0c4.69-3.46 11.62-1.43 14.88 3.87L868.46 416A7.26 7.26 0 01866 425.82zM896.59 385.16h0a8.41 8.41 0 00-3.88-9.86l-12.62-6.49c-5.41-2.79-12-1-14 4.35h0c-2 5.47 1.84 11.56 7.84 13.23l13.89 3.85A7.28 7.28 0 00896.59 385.16z" class="colorffffff svgShape"></path><path fill="#ffffff" d="M850.31 394.48l-4.44 5.91a2.34 2.34 0 01-3.26.46h0a2.35 2.35 0 01-.46-3.26l4.45-5.9a2.32 2.32 0 013.25-.46h0A2.32 2.32 0 01850.31 394.48zM866.69 372.71l-4.45 5.91a2.33 2.33 0 01-3.25.46h0a2.34 2.34 0 01-.46-3.26l4.44-5.91a2.34 2.34 0 013.26-.46h0A2.34 2.34 0 01866.69 372.71z" class="colorffffff svgShape"></path><path fill="#fbbc05" d="M870.49 378.72a2.92 2.92 0 11-4.09.58A2.92 2.92 0 01870.49 378.72zM869.56 372.18a2.92 2.92 0 11-4.09.58A2.92 2.92 0 01869.56 372.18zM876.17 371.16a2.92 2.92 0 11-4.09.58A2.93 2.93 0 01876.17 371.16zM877 377.75a2.92 2.92 0 11-4.09.58A2.92 2.92 0 01877 377.75zM855.48 402.47l-4.64 6.17a2.32 2.32 0 01-3.25.46h0a2.31 2.31 0 01-.46-3.25l4.64-6.17a2.32 2.32 0 013.25-.46h0A2.32 2.32 0 01855.48 402.47z" class="colorfbc81d svgShape"></path><path fill="#fbbc05" d="M853,408.34l-6.17-4.64a2.34,2.34,0,0,1-.46-3.26h0a2.33,2.33,0,0,1,3.25-.46l6.18,4.65a2.32,2.32,0,0,1,.46,3.25h0A2.34,2.34,0,0,1,853,408.34Z" class="colorfbc81d svgShape"></path><rect width="47.53" height="16.9" x="876.28" y="410.85" fill="#ffffff" transform="rotate(-53.56 900.06 419.292)" class="colorffffff svgShape"></rect><polygon fill="#ffffff" points="898.76 398.39 914 377.76 915.44 387.39 925.43 386.2 916.23 398.67 906.98 391.83 898.76 398.39" class="colorffffff svgShape"></polygon><polygon fill="#ffffff" points="879.42 424.58 864.19 445.22 873.82 443.76 875.63 453.66 884.83 441.2 875.58 434.37 879.42 424.58" class="colorffffff svgShape"></polygon><path fill="#ffffff" d="M1115.2,508.45l-1.12-.44a4.9,4.9,0,0,0-.12-3.45,3.84,3.84,0,0,0-2.42-2,4.8,4.8,0,0,0-5.54,1.82l-.3.48-.5-.28c-.59-.33-59.15-33.26-64.46-36.39a7.68,7.68,0,0,0-9.06.94h0s-4.58,6.13-6.89,9.74l-.29.45-.47-.23c-4.26-2-6.67.64-6.69.67l-.12.12-.16.05c-12.62,3.69-30.47-3.69-31.23-4l.47-1.1c.18.07,18.08,7.47,30.28,4a6.81,6.81,0,0,1,7.47-1c2.41-3.69,6.69-9.4,6.73-9.46s4.88-4.54,10.57-1.19c5.05,3,58.48,33,64,36.13a6,6,0,0,1,6.58-1.86,5,5,0,0,1,3.14,2.62A6.11,6.11,0,0,1,1115.2,508.45Z" class="colorffffff svgShape"></path><rect width="38.17" height="1.2" x="994.39" y="493.69" fill="#ffffff" transform="rotate(-55.5 1013.53 494.294)" class="colorffffff svgShape"></rect><path fill="#ffffff" d="M660.36,972.93l16.2,315.94c129.56,73.08,149.18-50.79,242.38-80.22L885.46,947C845.42,820.52,667,841.14,660.36,972.93Z" class="colorffffff svgShape"></path><path fill="#eb867e" d="M931.12,479.63c0-1.34,5.11-20.75,26.25-9.68A90.29,90.29,0,0,1,968,475.27s-2,6.33-6.57,6.48c-9.4.29-13.56-3.12-13.56-3.12s7.69,8.93,6.37,14.76C952.29,502.11,930.45,505.47,931.12,479.63Z" class="coloreb917e svgShape"></path><path fill="#b56761" d="M954.81,493.51l-1.08-.24c1.24-5.49-6.18-14.19-6.26-14.28a.56.56,0,0,1,.76-.81s4.16,3,13.23,3h0c3.57,0,4.52-4.63,4.71-5.91a53.26,53.26,0,0,0-9-4.81c-7.37-3.86-13.47-4.4-18.18-1.63-5.59,3.29-7.29,10.13-7.31,10.81l-1.12,0c0-.86,1.81-8.18,7.86-11.74,5.07-3,11.53-2.45,19.21,1.58a53,53,0,0,1,9.47,5.09.54.54,0,0,1,.24.51c-.23,2.51-1.76,7.24-5.86,7.24h0a30.64,30.64,0,0,1-11.54-2C952.15,483.35,955.8,489.16,954.81,493.51Z" class="colorb57061 svgShape"></path><path fill="#5d9aff" d="M1098.36,1855.36c-30.82,11.91-90.76-20-134.43-57-4-5.79-5-13-3.77-19.94,1.74-9.57.53-19.22,9.6-22.55-11.31-25.8,67.43-14.71,67.67,5.64l35,23.12s.38-.05,1.07-.08c5.18-.37,27.77-1,36.74,14.79C1132.52,1838.36,1098.36,1855.36,1098.36,1855.36Z" class="color645dff svgShape"></path><path fill="#3c64a6" d="M1101.52,1857c-31.58,12.2-93-20.48-137.74-58.4-4.07-5.94-5.15-13.37-3.86-20.43,11.19,10.65,51.13,50.64,92.61,62-3.68-24.57,9-46.13,23.54-55.7,5.31-.37,28.45-1,37.65,15.16C1136.52,1839.62,1101.52,1857,1101.52,1857Z" class="color413ca6 svgShape"></path><path fill="#3c64a6" d="M1016.11 1782.51a2.94 2.94 0 01-.4-5.86c4.54-.64 17.23-3.73 21.31-10.31a2.94 2.94 0 115 3.11c-6.37 10.27-24.72 12.93-25.5 13A2.83 2.83 0 011016.11 1782.51zM1031.57 1792.76a2.94 2.94 0 01-2.33-4.73c.27-.35 6.87-8.82 21.77-14.62a2.94 2.94 0 112.13 5.49c-13.25 5.15-19.18 12.65-19.24 12.72A2.93 2.93 0 011031.57 1792.76zM1045.4 1803.1a3.13 3.13 0 01-.85-.13 2.94 2.94 0 01-2-3.67c.14-.46 3.6-11.41 19.79-18.23a2.95 2.95 0 012.29 5.43c-13.67 5.75-16.42 14.41-16.44 14.5A3 3 0 011045.4 1803.1z" class="color413ca6 svgShape"></path><path fill="#ffffff" d="M1044,1675.25l-7.44,33.88-9.73,44.3c.24,9.67-37.1,10.92-50.74-1.63l0-1.72.52-47.22.31-27.61Z" class="colorffffff svgShape"></path><path fill="#ffffff" d="M1053.68,1661.27s-8.51,40.26-11.23,44.52c-1.22,1.91-2.12,3-5.91,3.34-4.66.45-13.63-.12-32.81-1.4-4.65-.3-8.63-.71-12-1.19-7.41-1-12.11-2.36-15.09-3.68-5.91-2.63-5-5.19-5-5.19s-1.94-38-.77-45.7,6.46-6.59,6.46-6.59l.13,8.7c7.89,8.09,39.27,11.19,57.09,10.08,5.39-.34,9.55-1,11.43-2.13,0,0,1.14-2.67,2.31-10.81A10.93,10.93,0,0,1,1053.68,1661.27Z" class="colorffffff svgShape"></path><path fill="#e6efff" d="M1053.68,1661.27s-8.51,40.26-11.23,44.52c-1.22,1.91-2.12,3-5.91,3.34l-9.73,44.3c.24,9.67-37.1,10.92-50.74-1.63l0-1.72c7,1,29.84,4.3,38.72-3.28,5.36-4.57,6.43-18.5,2.33-25.94-4-7.25-19.3-10-25.44-14.32-1-.69-2-1.31-2.91-1.84,19.21,4.18,32.31-1.68,37.6-3.63,2.42-.9,4.79-13,6.64-25.82.53-3.71,1-7.49,1.47-11.09,5.39-.34,9.55-1,11.43-2.13,0,0,1.14-2.67,2.31-10.81A10.93,10.93,0,0,1,1053.68,1661.27Z" class="colore6f2ff svgShape"></path><path fill="#4b7dd1" d="M819.77,933.21s5.67,132.41,89.14,253.45c40.24-15.25,108.49-32.07,108.52-61.77-55.09-42.57-77.21-66.05-110.15-171-27.13-86.4-105-96-105-96S781.35,863.33,819.77,933.21Z" class="color524bd1 svgShape"></path><path fill="#34568f" d="M706.86,840.91s9.54-16.26,47.79-1.46,41.88,44.39,22.62,53.33S691.18,868.34,706.86,840.91Z" class="color38348f svgShape"></path><path fill="#34568f" d="M775.47,843.47s42.6,18.28,55.43,32.39c-8.5,16.72-11.42,41.14-8.71,61.38-16.69-26.5-23.37-36.73-45.28-58.64C759.38,869.19,760.93,840.47,775.47,843.47Z" class="color38348f svgShape"></path><path fill="#eb867e" d="M816.26,819.56s-10.45,81.43-13,88.58c-13.44,37-80.61-13.6-82.13-35.08-.16-2.24,16.7-66.38,16.57-66.09C740.1,807.6,816.38,819.59,816.26,819.56Z" class="coloreb917e svgShape"></path><path fill="#4b7dd1" d="M702.88,877.31s-30.64,64.59-43.23,127.55c4.94,72.45,4.71,160.53-31.57,273,0,0,76.19,56.85,154.81-7.26,25.19-85,28.59-278.41,13.64-333.5C748.52,925.31,702.88,877.31,702.88,877.31Z" class="color524bd1 svgShape"></path><path fill="#5d9aff" d="M688.8,1005.51l83.75,7.28s7.28,58.26-12.75,73.43-63.11,9.71-72.82-6.67C680.91,1055.27,688.8,1005.51,688.8,1005.51Z" class="color645dff svgShape"></path><path fill="#34568f" d="M700.82,881.66c6.7,25.68,59.15,52.35,97.1,55.11-8.29-26.71-20.07-36.63-35.14-47.5-24.78-2.48-60.19-29.5-55.92-48.36C706.86,840.91,696.37,848.38,700.82,881.66Z" class="color38348f svgShape"></path><rect width="12.01" height="22.36" x="511.61" y="610.85" fill="#4a4a4a" rx="3.14" transform="rotate(10.96 517.52 621.861)" class="color4a4a4a svgShape"></rect><path fill="#eb867e" d="M666.23,859.32,571.31,756.84l-1.7-200.47-36.44-4.32s-36.1,174.69-29.74,220.12S605.35,940.83,605.35,940.83Z" class="coloreb917e svgShape"></path><path fill="#4b7dd1" d="M671.35,1024.68c7.39-5.29,75.21-100.93,75.21-100.93L661,829.35c-20.46,49.66-51.46,70.83-89.56,72.82Z" class="color524bd1 svgShape"></path><path fill="#eb867e" d="M533,551.62s11.83-51,27.32-45.87,43.59,15,43.87,23.58S597,546,597,546s3.59,6.73,1,14.07-33.12,23.56-43.34,22.18S531.38,575.76,533,551.62Z" class="coloreb917e svgShape"></path><path fill="#b56761" d="M591.18,552a.54.54,0,0,1-.46-.24.55.55,0,0,1,.14-.78,35.77,35.77,0,0,0,7.8-8.12.55.55,0,0,1,.77-.16.57.57,0,0,1,.16.78,36.49,36.49,0,0,1-8.1,8.42A.52.52,0,0,1,591.18,552Z" class="colorb57061 svgShape"></path><polygon fill="#4a4a4a" points="571.75 629.17 517 629.17 519.23 614.09 571.75 614.09 571.75 629.17" class="color4a4a4a svgShape"></polygon><path fill="#34568f" d="M633.26,824.36s16.15-13.22,27.41-4.16,13.71,13.46,13.71,13.46,2.94,27.17-41.61,57.76-60.21,19.83-60.21,19.83l-18.11-24.72s-3.43-1.72,3.18-11l5.87,7.83s25.21,12.24,49.45-11.25S639.62,832,639.62,832Z" class="color38348f svgShape"></path><path fill="#eb867e" d="M781.14,647.24c14.14,11.82,35.85,32.11,44,40.6,43.16,19.29,46.51,64.85,37.21,93.71-12.58,39-76,58.87-134.64,39.41s-93-72.31-76.76-121.37c11.16-33.66,45.54-60.69,83.38-64.53a87.78,87.78,0,0,1,33.24,2.9l1.35.39C770.69,638.89,775.26,642.34,781.14,647.24Z" class="coloreb917e svgShape"></path><path fill="#bf5d55" d="M781.14,647.24c-32.23,4.57-61,34.19-61,34.19s25.27.25,37.68,8.37c-41,5.85-71.32,56.47-71.32,56.47s-16.76-27.93-1-67.33,44-38.13,71.8-40.67a76.71,76.71,0,0,1,10.26-.31l1.35.39C770.69,638.89,775.26,642.34,781.14,647.24Z" class="colorbf6955 svgShape"></path><path fill="#a6514a" d="M844.74,737.12c-1.19,3.65-1.58,11-1.65,18.4-.08,10.78.54,21.73.54,21.73s-28.38,16.68-52.07,3c.55-.13,1.09-.28,1.64-.43C823.45,771.28,844.74,737.12,844.74,737.12Z" class="colora65b4a svgShape"></path><path fill="#ffffff" d="M844.74,737.12c-1.19,3.65-1.58,11-1.65,18.4-19.33,22-38.43,25.05-49.89,24.29C823.45,771.28,844.74,737.12,844.74,737.12Z" class="colorffffff svgShape"></path><path fill="#a6514a" d="M832.36,732.14a21.28,21.28,0,0,1-8.16,7.26,1.17,1.17,0,0,1-1-2.13c.43-.19,10.49-4.92,8.84-15-.9-5.55-3.48-5.63-10.36-5.82a77.79,77.79,0,0,1-30.28-6.23,1.17,1.17,0,0,1,.89-2.16,75.59,75.59,0,0,0,29.46,6.06c7.1.2,11.38.32,12.6,7.77A14.54,14.54,0,0,1,832.36,732.14Z" class="colora65b4a svgShape"></path><ellipse cx="759.89" cy="738.58" fill="#1e1e1e" rx="4.64" ry="8.42" transform="rotate(-58.08 759.864 738.58)" class="color1e1e1e svgShape"></ellipse><path fill="#1e1e1e" d="M799,681.32c3.39,2.12,5.2,5.35,4,7.22s-4.86,1.67-8.25-.44-5.2-5.35-4-7.22S795.64,679.21,799,681.32Z" class="color1e1e1e svgShape"></path><path fill="#fff1c7" d="M739,790.21c.1.06-.59,0-.86-.86-2.15-6.72-11.44-21.6-49.19-45,0,0,13.46-51.89,74.68-71.93-25.52-11.18-45.08-.83-45.08-.83s48-35.06,72.39-30.38c0,0-13.79-10.68-45.67-11.67,0,0,12.72-7.8,33.57-4.25-30.06-14-96-15.8-139.72,60.23S668.9,822,713.47,826.18C730.52,828.62,744.66,819.16,739,790.21Z" class="colorffd0c7 svgShape"></path><path fill="#fff1c7" d="M663.59,652.45s22.33-21,17.39-50.42c10.14,7.34,14.49,33.32,8.35,48.66S655.52,670.35,663.59,652.45Z" class="colorffd0c7 svgShape"></path><path fill="#a6514a" d="M784.75 743.27a.86.86 0 11.46 1.13A.86.86 0 01784.75 743.27zM781.78 767a.86.86 0 11.46 1.13A.87.87 0 01781.78 767zM793.75 744.71a.86.86 0 111.58.67.86.86 0 01-1.13.46A.85.85 0 01793.75 744.71zM785.68 756a.86.86 0 11.46 1.13A.87.87 0 01785.68 756zM794.86 755.36a.86.86 0 11.46 1.13A.87.87 0 01794.86 755.36zM776.4 757.44a.86.86 0 11.45 1.13A.86.86 0 01776.4 757.44zM820 690.32a.74.74 0 011-.39.75.75 0 01.4 1 .76.76 0 01-1 .4A.74.74 0 01820 690.32zM817.42 707.81a.76.76 0 11.4 1A.76.76 0 01817.42 707.81zM821 699a.75.75 0 111.38.58A.75.75 0 11821 699zM827.84 695.74a.75.75 0 11.4 1A.75.75 0 01827.84 695.74zM812.73 699.51a.74.74 0 011-.4.75.75 0 11-1 .4z" class="colora65b4a svgShape"></path><ellipse cx="720.51" cy="803.51" fill="#e1ecff" rx="40.92" ry="47.78" transform="rotate(-62.35 720.565 803.526)" class="colore7e1ff svgShape"></ellipse><path fill="#82b1ff" d="M757.83,834.12c-.27.52-.55,1-.84,1.52-11.07,18.84-37.74,24.51-60.54,12.57s-33.27-37-24.19-56.8c.16-.35.33-.71.51-1s.2-.42.31-.63a35.72,35.72,0,0,1,8.51-10.63c13.19-11.22,34.31-13.18,52.87-3.46C757.86,787.9,768.32,814.08,757.83,834.12Z" class="color8882ff svgShape"></path><path fill="#474747" d="M757,835.64c-.09.18-.19.36-.28.55-10.5,20-38,26.34-61.38,14.09S661.47,811.83,672,791.8l.23-.43c.18-.34.37-.68.57-1a35.86,35.86,0,0,1,9.56-10.67c13.25-9.9,33.29-11.26,51-2C756.53,789.86,767,815.68,757,835.64Z" class="color474747 svgShape"></path><path fill="#2e2e2e" d="M680,797.54c-8.27,15.79.15,36.52,18.8,46.29s40.48,4.88,48.76-10.91-.15-36.51-18.8-46.29S688.31,781.74,680,797.54Zm61.59,32.26c-6.81,13-24.78,17-40.15,9s-22.29-25.1-15.47-38.11,24.78-17,40.14-9S748.43,816.8,741.62,829.8Z" class="color2e2e2e svgShape"></path><path fill="#294d33" d="M681.59,779.1a6,6,0,0,1,.74.59c6.84,8.21,24.93,21.38,24.79,20.76l-.21,3-6.7,2.91-28-14.93-.06,0c.18-.34.37-.68.57-1s.2-.42.31-.63A35.72,35.72,0,0,1,681.59,779.1Z" class="color2f294d svgShape"></path><path fill="#4b7dd1" d="M697,801.84c-4.29,8.18.07,18.91,9.72,24s21,2.53,25.24-5.64-.08-18.9-9.73-24S701.28,793.67,697,801.84Z" class="color524bd1 svgShape"></path><path fill="#8a8a8a" d="M633.11,693.45l-1.65-1a17.38,17.38,0,0,0-2.55,3.55c-41.77,79.73,74,126.16,74,126.16L706.87,798l.25-2.31S610.53,759.63,633.11,693.45Z" class="color8a8a8a svgShape"></path><path fill="#474747" d="M700.82,826.17l12.86-25.71s-107.78-34.36-81.53-109a63.68,63.68,0,0,0-5.36,8.54C585,779.75,700.82,826.17,700.82,826.17Z" class="color474747 svgShape"></path><path fill="#4b7dd1" d="M695.05,805.21c-4,7.6.6,18,10.26,23s20.71,3,24.69-4.61-.62-17.85-10.28-22.91S699,797.61,695.05,805.21Zm32.23,24,4.82-9.37-36.43-15.78-3.84,6.31Z" class="color524bd1 svgShape"></path><path fill="#4b7dd1" d="M691.61,810.88c-4.27,8.18.55,18.72,10.31,23.84s21.14,2.64,25.41-5.53-.17-19-9.93-24.09S695.89,802.7,691.61,810.88Z" class="color524bd1 svgShape"></path><path fill="#2e2e2e" d="M694.79 812.47c-3.51 6.73.45 15.4 8.48 19.62s17.4 2.17 20.92-4.56-.14-15.6-8.17-19.81S698.31 805.74 694.79 812.47zM860.64 797.4c-11.2 18-25.79 30.07-43.58 36.08-41.61 14.06-85.29-10.13-87.13-11.17a3.44 3.44 0 113.38-6c.42.24 42.91 23.72 81.59 10.63 21-7.12 37.29-23.78 48.34-49.51a3.44 3.44 0 116.33 2.72A128.57 128.57 0 01860.64 797.4z" class="color2e2e2e svgShape"></path><path fill="#2e2e2e" d="M855.69,770.29h25.05a6.88,6.88,0,0,1,6.88,6.88v4a6.89,6.89,0,0,1-6.89,6.89H855.69a6.88,6.88,0,0,1-6.88-6.88v-4a6.88,6.88,0,0,1,6.88-6.88Z" transform="rotate(-57.53 868.3 779.196)" class="color2e2e2e svgShape"></path><path fill="#474747" d="M642.64,690.32c-9.93,23,6.72,58.15,6.82,60.33.19,4.1-1.73,5.64-1.73,5.64l-2.09-2.61a4,4,0,0,0-3.71.23c-1.55,1.14-12.88,17-12.88,17l3.15,4.82s-3.65,3.2-7.05-2.34l-.33-.52c-24-37.3,6.32-91.92,24.08-102.91C644,675.94,642.06,680.54,642.64,690.32Z" class="color474747 svgShape"></path><path fill="#2e2e2e" d="M642.64,690.32c-9.93,23,6.72,58.15,6.82,60.33.19,4.1-1.73,5.64-1.73,5.64l-2.09-2.61a4,4,0,0,0-3.71.23c-1.55,1.14-12.88,17-12.88,17l3.15,4.82s-3.65,3.2-7.05-2.34l-.33-.52c1-.39,2.18-1.53,3-4.4,1.81-6.4,12.59-15.39,14.27-18.36s-8.1-13.56-8.53-31.39C633.17,702.91,642.64,690.32,642.64,690.32Z" class="color2e2e2e svgShape"></path><polygon fill="#383838" points="1018.1 1145.52 1152.16 1144.7 1152.08 1123.64 1018.03 1133.2 1018.1 1145.52" class="color383838 svgShape"></polygon><polygon fill="#121212" points="1151.62 1123.64 1151.69 1144.08 1285.75 1142.58 1285.71 1123.64 1151.62 1123.64" class="color121212 svgShape"></polygon><polygon fill="#595959" points="1439.5 955.18 1162.42 969.61 1148.1 962.07 1221.4 573.23 1515.87 581.15 1529.69 588.26 1439.5 955.18" class="color595959 svgShape"></polygon><path fill="#404040" d="M1462.18,965l-299.76,4.66,72.83-389.21,294.44,7.86C1503.36,741.27,1479.94,859.87,1462.18,965Z" class="color404040 svgShape"></path><polygon fill="#0d0d0d" points="1272.46 649.87 1266.5 649.91 1275.99 608.01 1281.93 607.97 1272.46 649.87" class="color0d0d0d svgShape"></polygon><polygon fill="#0d0d0d" points="1283.9 649.78 1277.94 649.83 1287.39 607.94 1293.32 607.9 1283.9 649.78" class="color0d0d0d svgShape"></polygon><polygon fill="#0d0d0d" points="1295.34 649.7 1289.38 649.75 1298.78 607.87 1304.71 607.83 1295.34 649.7" class="color0d0d0d svgShape"></polygon><polygon fill="#0d0d0d" points="1306.77 649.62 1300.81 649.66 1310.16 607.8 1316.09 607.76 1306.77 649.62" class="color0d0d0d svgShape"></polygon><polygon fill="#0d0d0d" points="1318.18 649.54 1312.23 649.58 1321.54 607.73 1327.46 607.69 1318.18 649.54" class="color0d0d0d svgShape"></polygon><path fill="#1f1f1f" d="M1421.63,759.29l-76.4-7.87-6.47,3L1382.3,1128l80.51-.5Zm-7.51,289.14c-13.31,1.52-26.25-15.9-28.88-38.9s6-42.88,19.3-44.4a13.39,13.39,0,0,1,3.1,0c12.16,1.24,23.35,17.71,25.79,38.92,2.36,20.66-4.36,38.8-15.41,43.36A13.7,13.7,0,0,1,1414.12,1048.43Z" class="color1f1f1f svgShape"></path><path fill="#545454" d="M1422.91,752.36l-76.46-1.88.11.93L1392,1127.9l80.52-.5Zm-7.47,296.06c-13.31,1.52-26.24-15.9-28.88-38.9s6-42.88,19.3-44.4a13.48,13.48,0,0,1,3.11,0c12.16,1.25,23.35,17.71,25.79,38.92,2.36,20.66-4.37,38.8-15.41,43.36A13.77,13.77,0,0,1,1415.44,1048.42Z" class="color545454 svgShape"></path><rect width="303.55" height="17.2" x="1179.95" y="1128.27" fill="#383838" transform="rotate(-.35 1342.143 1145.111)" class="color383838 svgShape"></rect><polygon fill="#1f1f1f" points="1370.76 966.84 1338.75 754.18 1318.08 967.16 1370.76 966.84" class="color1f1f1f svgShape"></polygon><path fill="#a6a6a6" d="M1422.44,1047.38a13.31,13.31,0,0,1-3.09,0c11-4.56,17.77-22.7,15.41-43.36-2.44-21.21-13.63-37.67-25.79-38.92a14,14,0,0,1,3.89-1c13.31-1.53,26.24,15.9,28.89,38.9S1435.75,1045.87,1422.44,1047.38Z" class="colora6a6a6 svgShape"></path><path fill="#0e0e0e" d="M1275.43,1155.71c-15.53.1-30-6.23-38.74-17-6.18-8.11-10.15-17.62-12.9-30.89l0-.12c-5.17-40.15.16-83,16.78-134.81l3.21,1c-16.45,51.31-21.74,93.66-16.65,133.29,2.64,12.72,6.42,21.79,12.24,29.42,8.22,10.11,22,16,36.71,15.73l.07,3.35Z" class="color0e0e0e svgShape"></path><polygon fill="#0e0e0e" points="1232.02 970.37 1230.38 977.91 1250.63 977.79 1253.22 970.24 1232.02 970.37" class="color0e0e0e svgShape"></polygon><path fill="#0e0e0e" d="M1317.85,1070.09c-8.73.05-16.48-1.95-22.86-6.09-14-9-28-32.22-16-91.18l3.31.67c-9.25,45.21-4.23,75.53,14.52,87.7,17.73,11.5,47.28,5,79.05-17.42l1.95,2.74C1356,1061.92,1335,1070,1317.85,1070.09Z" class="color0e0e0e svgShape"></path><polygon fill="#0e0e0e" points="1270.52 970.13 1268.89 977.68 1289.14 977.55 1291.73 970 1270.52 970.13" class="color0e0e0e svgShape"></polygon><path fill="#0e0e0e" d="M1454.26,1150.89l-2.94-1.66c.34-.6,33.52-59.64,12.39-101.8-5.69-11.36-13.75-18.63-24-21.61-20.64-6-43.46,7.29-43.69,7.43l-1.72-2.89c1-.58,24.33-14.2,46.36-7.77,11.16,3.26,19.92,11.11,26,23.34C1488.67,1089.71,1455.67,1148.41,1454.26,1150.89Z" class="color0e0e0e svgShape"></path><rect width="177.61" height="15.51" x="1152.5" y="1206.69" fill="#404040" transform="rotate(-43.2 1241.263 1214.425)" class="color404040 svgShape"></rect><rect width="177.61" height="15.51" x="1546.54" y="1206.69" fill="#404040" transform="rotate(-43.2 1635.3 1214.435)" class="color404040 svgShape"></rect><rect width="56.75" height="710.98" x="1140.69" y="1160.88" fill="#5e5e5e" class="color5e5e5e svgShape"></rect><rect width="56.75" height="710.98" x="1543.57" y="1160.88" fill="#404040" class="color404040 svgShape"></rect><rect width="772.31" height="27.8" x="1044.4" y="1137.86" fill="#5e5e5e" class="color5e5e5e svgShape"></rect><rect width="457.74" height="27.8" x="901.21" y="1137.86" fill="#404040" class="color404040 svgShape"></rect><polygon fill="#404040" points="1895.56 1876.72 1314.78 1876.72 1314.78 1851.16 1554.64 1824.58 1612.07 1824.58 1895.56 1851.16 1895.56 1876.72" class="color404040 svgShape"></polygon><polygon fill="#5e5e5e" points="1481.99 1876.72 901.21 1876.72 901.21 1851.16 1141.06 1824.58 1198.5 1824.58 1481.99 1851.16 1481.99 1876.72" class="color5e5e5e svgShape"></polygon><path fill="#0e0e0e" d="M1355.32,1887a1.66,1.66,0,0,0,1-1.77l-3.57.53.44-1.51c.94-1.11,1.75-1.24,22.7-1.56,40.33-.6,134.75-2,218-22.16,103-24.93,155.18-69.75,155.18-133.23,0-181.24.8-429.66,2-510.61.64-44-10.48-62.9-19.93-71-10.25-8.77-20.75-7.09-20.85-7.07l-.16,0h-.17c-96-1.16-241.24-2.17-247.67-.16a1.67,1.67,0,0,0,.27-.14l-2-3c1.13-.75,3.23-2.15,126.88-1.41,59.4.36,119,1.07,122.42,1.11,1.59-.23,12.73-1.41,23.62,7.91,14.6,12.49,21.73,37.31,21.19,73.77-1.19,80.93-2,329.34-2,510.56,0,65.36-53.14,111.36-157.94,136.73-83.63,20.24-178.34,21.66-218.78,22.27C1365.55,1886.47,1356.61,1886.61,1355.32,1887Z" class="color0e0e0e svgShape"></path><path fill="#404040" d="M1925.91,1885.67H236.76a6.6,6.6,0,1,1,0-13.19H1925.91a6.6,6.6,0,1,1,0,13.19Z" class="color404040 svgShape"></path><path fill="#34a853" d="M811.09,163.89a30.08,30.08,0,0,0,2.83-5.68c-1.27-.31-2.53-.64-3.77-1A33.94,33.94,0,0,1,811.09,163.89Z" class="color009345 svgShape"></path><path fill="#34a853" d="M769.78 133.21l.25-.13c17.34-8.7 35.75 6 40.12 24.15 1.24.34 2.5.67 3.77 1 8.92-24.16-16.11-54.26-39.24-42.66C766.17 119.82 765.33 126.38 769.78 133.21zM798.71 175.46c1-.6 2-1.23 2.9-1.88a34.35 34.35 0 009.48-9.7 30.62 30.62 0 01-1.82 11.85c-2.4 6.49-7.23 12.54-15.21 17.25-37.72 22.25-116.6-30.39-116.6-30.39l14.16-3L683.45 139S761 197.7 798.71 175.46z" class="color009345 svgShape"></path><path fill="#34a853" d="M762.71 140.8h.06c-2.73 10.53 14.38 25 38.84 32.79l.07-.05c15.27 3.72 40.26 6.92 57.16 3 60.9-14.16 74-39.88 74-39.88L931 134.08l6.5-15s-13.12 25.71-74 39.87c-16.93 3.94-34.31 2.94-49.57-.79v0s-1.29-.27-3.76-1c-19.16-5.36-34.45-14.93-40.37-24-3.18-5.17-2.65-8.92-2.58-9.33zM1356.68 1631.91a29.66 29.66 0 01-.94-6.17c1.28.09 2.56.15 3.82.2A33.84 33.84 0 001356.68 1631.91z" class="color009345 svgShape"></path><path fill="#34a853" d="M1404.67 1615.5c-.07-.07-.12-.14-.19-.2-13.67-13.37-35.38-5-44.92 10.64-1.26 0-2.54-.11-3.82-.2-1.14-25.37 31.39-46.13 49.63-28.29C1412.08 1604 1410.9 1610.42 1404.67 1615.5zM1364.84 1646.5q-1.15-1.32-2.16-2.64a34.08 34.08 0 01-6-11.95 29.79 29.79 0 00-1.84 11.67c.3 6.81 3 14 9.11 20.76 28.74 32.2 118.59 6.43 118.59 6.43l-12.39-7.1 13.83-16.81S1393.59 1678.69 1364.84 1646.5z" class="color009345 svgShape"></path><path fill="#34a853" d="M1409.9,1607.52c-.06.41-.69,4.09-5.23,8-8.28,6.76-25.5,11.16-45.11,10.44-2.53,0-3.8-.18-3.82-.18v0c-15.45-1.08-32.07-5.35-46.79-14.12C1256,1580.06,1251.4,1552,1251.4,1552l1.63,16-2.52,1.86s4.61,28.09,57.55,59.64c14.69,8.76,39.12,13.24,54.57,14.33l0,.07c25.3,0,45.71-8.44,46.31-19.15l0,0Z" class="color009345 svgShape"></path><path fill="#ea4335" d="M1327.7,399.64s-85.2,44.58-78.87-47.24-92.91-89.89-92.91-89.89l15.41,20.42-21.43,18.33s80.32-7.3,81.36,62.5c.78,52.77,24.73,72.24,53.79,69s39.62-11.92,39.62-11.92l-12-1.83Z" class="colorf32d2e svgShape"></path><path fill="#ffbe01" d="M342.53,1437.71s10.57,95.58-72.66,56.32-117.51,53.9-117.51,53.9L177,1541l9.28,26.62s22.39-77.48,87.79-53.08c49.45,18.45,76.29,3.21,83.82-25s3.29-41.25,3.29-41.25l-6.06,10.5Z" class="colorffe301 svgShape"></path><path fill="#932e26" d="M213.56 547.88s5.54-11.57 16.3-19.24c-23.52.26-35.79 25.9-35.79 25.9l15.52-10.94zM392 502.17l21-7.25 0-.08c20.38-9.49 36.49-57.57 37.31-58.82l-9.82 9.84-9.67-3.19c-.7 1.09-12.82 37.12-29.25 53h0A30.75 30.75 0 01392 502.17zM392 502.17l-.79.27S391.51 502.36 392 502.17zM284.33 545.21l20.22-6.78-.06-.08c12.82 0 21.8-45.68 34.6-54.85C307.09 478.77 306.58 534.67 284.33 545.21z" class="color93268f svgShape"></path><path fill="#932e26" d="M339.12 483.5c22.54-1.88 43.05 33.58 62.43 12.2-14.12-7.9-29.37-18.8-43-18.85v0c-10.51.32-20.63 1.5-33.63 9.61A37.42 37.42 0 01339.12 483.5zM215.06 532.42c29.08-15.59 63.06 30.52 78.77 5.74C265.37 527.86 248.9 511.64 215.06 532.42zM993.36 907.13a47.46 47.46 0 0120.23 6.26c-7.94-18.08-31.78-19.13-31.78-19.13l13.55 8.39zM1087.37 1030l12.51 13.85 0-.07c14 12.63 56.48 9.26 57.72 9.48l-10.84-4.35-.72-8.52c-1.06-.19-32.89 2.3-50.58-5.15h0A25.69 25.69 0 011087.37 1030zM1087.37 1030l-.47-.52S1087.05 1029.62 1087.37 1030zM1018.7 960.92l11.89 13.39 0-.08c4.23 9.91 42.47 1.83 53.76 8.7C1077.51 956.64 1034.16 974.64 1018.7 960.92z" class="color93268f svgShape"></path><path fill="#932e26" d="M1084.39 983c8.87 16.79-11.78 44.3 11.11 52.24 1.46-13.51 4.87-28.88.43-39.39h0c-3.7-8-7.94-15.44-18.48-22.82A31.42 31.42 0 011084.39 983zM1005.79 903.2c21.61 17.34-2.83 58.75 21.48 62.74C1025.87 940.57 1033 922.51 1005.79 903.2z" class="color93268f svgShape"></path><path fill="#fec51f" d="M659 421s-42.58-19.84-54.43-52.81a55 55 0 0014.29.34l10.8-18s7.76 36.09 42.75 54.11A30.18 30.18 0 00661 411.1zM1487.48 743.18s40.13 24.42 74.14 16a54.59 54.59 0 01-8.22-11.7l8.95-19S1528 742.08 1493.62 723a30.18 30.18 0 011.06 13.08zM222.05 1227.84s-103.77-7-154.56-65.59c18.35-4.23 29.79-10.71 29.79-10.71l8-45.7s44.84 68.32 131.47 77.6a66.92 66.92 0 00-18.6 22.33z" class="colorfe931f svgShape"></path><path fill="#34a853" d="M1695.28,994.92s-25-39.76-59.23-47.38a54.88,54.88,0,0,1,2.13,14.14l-16.46,13s36.78,3.17,59,35.62a30.26,30.26,0,0,1,4.88-12.18Z" class="color009345 svgShape"></path><path fill="#ffbe01" d="M358.9,748.28s52.31.15,78.08-18.26a85.11,85.11,0,0,1-15-4.3l-3.87-15.49s-22.79,21.8-66.48,22.83A28.37,28.37,0,0,1,361,741Z" class="colorffe301 svgShape"></path></g></g></svg>