<svg xmlns="http://www.w3.org/2000/svg" viewBox="0 0 1382.77 1314.04" id="woman-winning-video-games"><g><g><path fill="#995843" d="M124.41,1116.65V1314h248.7l-9.28-133.18c-2.56-36.8-28-65-58.42-64.93Z"></path><path fill="#703231" d="M136.69,1116.65V1314h248.7l-9.27-133.18c-2.57-36.8-28-65-58.43-64.93Z"></path><rect width="30.98" height="283.98" x="920.16" y="910.55" fill="#60758a" transform="rotate(180 935.65 1052.545)"></rect><rect width="59.38" height="196.21" x="905.96" y="1069.33" fill="#243a4f" transform="rotate(180 935.65 1167.43)"></rect><path fill="#243a4f" d="M1067.41 1244.22l13.8 45.07c9 1.06 15.83 6.14 15.83 12.26 0 6.9-8.65 12.49-19.31 12.49s-19.32-5.59-19.32-12.49c0-3.73 2.58-7 6.59-9.32l-14.38-28.55-89.7 1.85-17-15.57zM804.66 1244.22l-13.79 45.07c-9 1.06-15.84 6.14-15.84 12.26 0 6.9 8.65 12.49 19.32 12.49s19.31-5.59 19.31-12.49c0-3.73-2.58-7-6.58-9.32l14.38-28.55 87.54 1.85L928.14 1250zM925.17 1300.84c0-7.28 5.09-13.19 11.36-13.19s11.36 5.91 11.36 13.19S942.81 1314 936.53 1314 925.17 1308.13 925.17 1300.84z"></path><polygon fill="#243a4f" points="947.89 1249.96 939.39 1297.23 930.11 1296.59 925.17 1253.8 947.89 1249.96"></polygon><path fill="#966e4b" d="M693.07,915.39a24.14,24.14,0,0,0,24.15,24.15h422.71a24.17,24.17,0,0,0,0-48.34H717.22A24.17,24.17,0,0,0,693.07,915.39Z"></path><path fill="#6e4834" d="M915.12,915.39a24.19,24.19,0,0,0,24.19,24.15h200.62a24.17,24.17,0,0,0,0-48.34H939.31A24.2,24.2,0,0,0,915.12,915.39Z"></path><path fill="#966e4b" d="M909,891.5a19.68,19.68,0,0,0,3,.12,8.28,8.28,0,0,0,1.22,0,8.83,8.83,0,0,0,1.26,0,8.42,8.42,0,0,0,1.23,0,8.41,8.41,0,0,0,1.23,0,8.83,8.83,0,0,0,1.26,0,8.42,8.42,0,0,0,1.23,0,8.41,8.41,0,0,0,1.23,0,8.83,8.83,0,0,0,1.26,0,8.28,8.28,0,0,0,1.22,0,8.41,8.41,0,0,0,1.23,0,8.83,8.83,0,0,0,1.26,0,8.42,8.42,0,0,0,1.23,0,8.41,8.41,0,0,0,1.23,0,8.83,8.83,0,0,0,1.26,0,8.42,8.42,0,0,0,1.23,0,8.28,8.28,0,0,0,1.22,0,8.83,8.83,0,0,0,1.26,0,8.42,8.42,0,0,0,1.23,0,8.41,8.41,0,0,0,1.23,0,8.83,8.83,0,0,0,1.26,0,8.42,8.42,0,0,0,1.23,0,8.41,8.41,0,0,0,1.23,0,8.69,8.69,0,0,0,1.25,0,8.42,8.42,0,0,0,1.23,0,8.41,8.41,0,0,0,1.23,0,8.83,8.83,0,0,0,1.26,0,8.42,8.42,0,0,0,1.23,0,8.41,8.41,0,0,0,1.23,0,8.83,8.83,0,0,0,1.26,0,8.28,8.28,0,0,0,1.22,0,8.41,8.41,0,0,0,1.23,0,8.83,8.83,0,0,0,1.26,0,8.42,8.42,0,0,0,1.23,0,8.41,8.41,0,0,0,1.23,0,8.83,8.83,0,0,0,1.26,0,8.42,8.42,0,0,0,1.23,0,8.28,8.28,0,0,0,1.22,0,8.83,8.83,0,0,0,1.26,0,8.42,8.42,0,0,0,1.23,0,8.41,8.41,0,0,0,1.23,0,8.83,8.83,0,0,0,1.26,0,8.42,8.42,0,0,0,1.23,0,8.41,8.41,0,0,0,1.23,0,8.83,8.83,0,0,0,1.26,0,8.28,8.28,0,0,0,1.22,0,8.41,8.41,0,0,0,1.23,0,8.83,8.83,0,0,0,1.26,0,8.42,8.42,0,0,0,1.23,0,8.41,8.41,0,0,0,1.23,0,8.83,8.83,0,0,0,1.26,0,8.42,8.42,0,0,0,1.23,0,8.28,8.28,0,0,0,1.22,0,8.83,8.83,0,0,0,1.26,0,8.42,8.42,0,0,0,1.23,0,8.41,8.41,0,0,0,1.23,0,8.83,8.83,0,0,0,1.26,0,8.42,8.42,0,0,0,1.23,0,8.41,8.41,0,0,0,1.23,0,8.69,8.69,0,0,0,1.25,0,8.42,8.42,0,0,0,1.23,0,8.41,8.41,0,0,0,1.23,0,8.83,8.83,0,0,0,1.26,0,8.42,8.42,0,0,0,1.23,0,8.41,8.41,0,0,0,1.23,0,8.83,8.83,0,0,0,1.26,0,8.42,8.42,0,0,0,1.23,0,8.28,8.28,0,0,0,1.22,0,8.83,8.83,0,0,0,1.26,0,8.42,8.42,0,0,0,1.23,0,8.41,8.41,0,0,0,1.23,0,8.83,8.83,0,0,0,1.26,0,8.42,8.42,0,0,0,1.23,0,8.41,8.41,0,0,0,1.23,0,8.69,8.69,0,0,0,1.25,0,8.42,8.42,0,0,0,1.23,0,8.41,8.41,0,0,0,1.23,0,7.86,7.86,0,0,0,.84,0,2,2,0,0,0,.42,0,8.42,8.42,0,0,0,1.23,0,8.41,8.41,0,0,0,1.23,0,8.83,8.83,0,0,0,1.26,0,8.28,8.28,0,0,0,1.22,0,8.41,8.41,0,0,0,1.23,0,8.83,8.83,0,0,0,1.26,0,8.42,8.42,0,0,0,1.23,0,8.41,8.41,0,0,0,1.23,0,8.83,8.83,0,0,0,1.26,0,8.42,8.42,0,0,0,1.23,0,8.41,8.41,0,0,0,1.23,0,8.69,8.69,0,0,0,1.25,0,8.42,8.42,0,0,0,1.23,0,8.41,8.41,0,0,0,1.23,0,8.83,8.83,0,0,0,1.26,0,8.42,8.42,0,0,0,1.23,0,8.41,8.41,0,0,0,1.23,0,8.83,8.83,0,0,0,1.26,0,8.28,8.28,0,0,0,1.22,0,8.41,8.41,0,0,0,1.23,0,8.83,8.83,0,0,0,1.26,0,8.42,8.42,0,0,0,1.23,0,8.41,8.41,0,0,0,1.23,0,8.83,8.83,0,0,0,1.26,0,8.42,8.42,0,0,0,1.23,0,8.28,8.28,0,0,0,1.22,0,8.83,8.83,0,0,0,1.26,0,8.42,8.42,0,0,0,1.23,0,8.41,8.41,0,0,0,1.23,0,8.83,8.83,0,0,0,1.26,0,8.42,8.42,0,0,0,1.23,0,8.41,8.41,0,0,0,1.23,0,8.69,8.69,0,0,0,1.25,0,8.42,8.42,0,0,0,1.23,0,8.41,8.41,0,0,0,1.23,0,8.83,8.83,0,0,0,1.26,0,8.42,8.42,0,0,0,1.23,0,8.41,8.41,0,0,0,1.23,0,8.83,8.83,0,0,0,1.26,0,8.28,8.28,0,0,0,1.22,0,8.41,8.41,0,0,0,1.23,0,8.83,8.83,0,0,0,1.26,0,8.42,8.42,0,0,0,1.23,0,8.41,8.41,0,0,0,1.23,0,8.83,8.83,0,0,0,1.26,0,8.42,8.42,0,0,0,1.23,0,8.41,8.41,0,0,0,1.23,0,8.69,8.69,0,0,0,1.25,0,8.42,8.42,0,0,0,1.23,0,8.41,8.41,0,0,0,1.23,0,8.83,8.83,0,0,0,1.26,0,8.42,8.42,0,0,0,1.23,0,8.41,8.41,0,0,0,1.23,0,8.83,8.83,0,0,0,1.26,0,8.28,8.28,0,0,0,1.22,0,8.41,8.41,0,0,0,1.23,0,8.83,8.83,0,0,0,1.26,0,8.42,8.42,0,0,0,1.23,0,8.41,8.41,0,0,0,1.23,0,8.83,8.83,0,0,0,1.26,0,8.42,8.42,0,0,0,1.23,0,8.28,8.28,0,0,0,1.22,0,8.83,8.83,0,0,0,1.26,0,8.42,8.42,0,0,0,1.23,0,8.41,8.41,0,0,0,1.23,0,8.83,8.83,0,0,0,1.26,0,8.42,8.42,0,0,0,1.23,0,8.41,8.41,0,0,0,1.23,0,8.83,8.83,0,0,0,1.26,0,8.28,8.28,0,0,0,1.22,0,8.41,8.41,0,0,0,1.23,0,8.83,8.83,0,0,0,1.26,0,8.42,8.42,0,0,0,1.23,0,8.41,8.41,0,0,0,1.23,0,8.83,8.83,0,0,0,1.26,0,8.42,8.42,0,0,0,1.23,0,8.28,8.28,0,0,0,1.22,0,8.83,8.83,0,0,0,1.26,0,8.42,8.42,0,0,0,1.23,0,8.41,8.41,0,0,0,1.23,0,8.83,8.83,0,0,0,1.26,0,8.42,8.42,0,0,0,1.23,0,8.41,8.41,0,0,0,1.23,0,8.69,8.69,0,0,0,1.25,0,8.42,8.42,0,0,0,1.23,0,8.41,8.41,0,0,0,1.23,0,8.83,8.83,0,0,0,1.26,0,8.42,8.42,0,0,0,1.23,0,8.83,8.83,0,0,0,1.26,0,8.41,8.41,0,0,0,1.23,0,8.42,8.42,0,0,0,1.23,0,8.69,8.69,0,0,0,1.25,0,8.41,8.41,0,0,0,1.23,0,8.42,8.42,0,0,0,1.23,0,8.83,8.83,0,0,0,1.26,0,8.41,8.41,0,0,0,1.23,0,8.42,8.42,0,0,0,1.23,0,8.83,8.83,0,0,0,1.26,0,8.28,8.28,0,0,0,1.22,0,8.42,8.42,0,0,0,1.23,0,8.83,8.83,0,0,0,1.26,0,8.41,8.41,0,0,0,1.23,0,8.42,8.42,0,0,0,1.23,0,8.83,8.83,0,0,0,1.26,0,8.41,8.41,0,0,0,1.23,0,8.28,8.28,0,0,0,1.22,0,8.83,8.83,0,0,0,1.26,0,8.41,8.41,0,0,0,1.23,0,8.42,8.42,0,0,0,1.23,0,8.83,8.83,0,0,0,1.26,0,8.41,8.41,0,0,0,1.23,0,8.42,8.42,0,0,0,1.23,0,8.69,8.69,0,0,0,1.25,0,8.41,8.41,0,0,0,1.23,0,8.42,8.42,0,0,0,1.23,0,8.83,8.83,0,0,0,1.26,0,8.41,8.41,0,0,0,1.23,0,8.42,8.42,0,0,0,1.23,0,8.83,8.83,0,0,0,1.26,0,8.28,8.28,0,0,0,1.22,0,8.42,8.42,0,0,0,1.23,0,8.83,8.83,0,0,0,1.26,0,8.41,8.41,0,0,0,1.23,0,24.5,24.5,0,0,0,2.58-.06A19.63,19.63,0,0,0,1180,874.48l30.11-233.29,3.9-30.27,40-310.21a19.74,19.74,0,0,0-17-22.06,19.49,19.49,0,0,0-3-.12c-.42,0-.84,0-1.23,0s-.84,0-1.26,0-.81,0-1.23,0-.84,0-1.23,0-.84,0-1.25,0-.81,0-1.23,0-.84,0-1.23,0-.84,0-1.26,0-.81,0-1.23,0-.84,0-1.23,0-.84,0-1.26,0-.81,0-1.23,0-.83,0-1.22,0-.84,0-1.26,0-.81,0-1.23,0-.84,0-1.23,0-.84,0-1.26,0-.81,0-1.23,0-.84,0-1.23,0-.83,0-1.25,0-.81,0-1.23,0-.84,0-1.23,0-.84,0-1.26,0-.81,0-1.23,0-.84,0-1.23,0-.84,0-1.26,0-.81,0-1.22,0-.84,0-1.23,0-.84,0-1.26,0-.81,0-1.23,0-.84,0-1.23,0-.84,0-1.26,0-.81,0-1.23,0-.84,0-1.23,0-.83,0-1.25,0-.81,0-1.23,0-.84,0-1.23,0-.84,0-1.26,0-.81,0-1.23,0-.84,0-1.23,0-.84,0-1.26,0-.8,0-1.22,0-.84,0-1.23,0-.84,0-1.26,0-.81,0-1.23,0-.84,0-1.23,0-.84,0-1.26,0-.81,0-1.23,0-.83,0-1.22,0-.84,0-1.26,0-.81,0-1.23,0-.84,0-1.23,0-.84,0-1.26,0-.81,0-1.23,0-.84,0-1.23,0-.83,0-1.25,0-.81,0-1.23,0-.84,0-1.23,0-.84,0-1.26,0-.81,0-1.23,0-.84,0-1.23,0-.84,0-1.26,0-.81,0-1.22,0-.84,0-1.23,0-.84,0-1.26,0-.81,0-1.23,0-.84,0-1.23,0-.84,0-1.26,0-.81,0-1.23,0-.84,0-1.23,0-.83,0-1.25,0-.81,0-1.23,0-.84,0-1.23,0-.84,0-1.26,0-.81,0-1.23,0-.84,0-1.23,0-.84,0-1.26,0-.81,0-1.22,0-.84,0-1.23,0-.84,0-1.26,0-.81,0-1.23,0-.84,0-1.23,0-.84,0-1.26,0-.81,0-1.23,0-.84,0-1.22,0-.84,0-1.26,0-.81,0-1.23,0-.84,0-1.23,0-.84,0-1.26,0-.81,0-1.23,0-.84,0-1.23,0-.84,0-1.26,0-.8,0-1.22,0-.84,0-1.23,0-.84,0-1.26,0-.81,0-1.23,0-.84,0-1.23,0-.84,0-1.26,0-.81,0-1.23,0-.83,0-1.22,0-.84,0-1.26,0-.81,0-1.23,0-.84,0-1.23,0-.84,0-1.26,0-.81,0-1.23,0-.84,0-1.23,0-.84,0-1.25,0-.81,0-1.23,0-.84,0-1.23,0-.84,0-1.26,0-.81,0-1.23,0-.84,0-1.23,0-.84,0-1.26,0-.81,0-1.23,0-.83,0-1.22,0-.84,0-1.26,0-.81,0-1.23,0-.84,0-1.23,0-.84,0-1.26,0-.81,0-1.23,0-.84,0-1.23,0-.83,0-1.25,0-.81,0-1.23,0-.84,0-1.23,0-.84,0-1.26,0-.81,0-1.23,0-.84,0-1.23,0-.84,0-1.26,0-.8,0-1.22,0-.84,0-1.23,0-.84,0-1.26,0-.81,0-1.23,0-.84,0-1.23,0-.84,0-1.26,0-.81,0-1.23,0-.83,0-1.22,0-.84,0-1.26,0-.81,0-1.23,0-.84,0-1.23,0-.84,0-1.26,0-.81,0-1.23,0-.84,0-1.23,0-.84,0-1.25,0-.81,0-1.23,0-.84,0-1.23,0-.84,0-1.26,0-.81,0-1.23,0-.84,0-1.23,0-.84,0-1.26,0-.81,0-1.23,0-.83,0-1.22,0-.84,0-1.26,0-.81,0-1.23,0-.84,0-1.23,0-.84,0-1.26,0-.81,0-1.23,0-.84,0-1.23,0-.84,0-1.25,0-.81,0-1.23,0-.84,0-1.23,0-.84,0-1.26,0-.81,0-1.23,0-.84,0-1.23,0-.84,0-1.26,0-.81,0-1.22,0-.84,0-1.23,0-.84,0-1.26,0-.81,0-1.23,0-.84,0-1.23,0-.84,0-1.26,0-.81,0-1.23,0-.84,0-1.22,0-.84,0-1.26,0-.81,0-1.23,0-.84,0-1.23,0-.84,0-1.26,0-.81,0-1.23,0-.84,0-1.23,0-.84,0-1.26,0-.8,0-1.22,0-.84,0-1.23,0-.84,0-1.26,0-.81,0-1.23,0-.84,0-1.23,0-.84,0-1.26,0-.81,0-1.23,0-.84,0-1.22,0-.84,0-1.26,0-.81,0-1.23,0-.84,0-1.23,0-.84,0-1.26,0-.81,0-1.23,0-.84,0-1.23,0-.84,0-1.25,0-.81,0-1.23,0-.84,0-1.23,0-.84,0-1.26,0-.81,0-1.23,0-.84,0-1.26,0-.81,0-1.23,0A19.65,19.65,0,0,0,966,295.67l-3,23.08-22.6,174.94L892,869.45A19.72,19.72,0,0,0,909,891.5Z"></path><path d="M1224.56,367.3l-69.77,47.05S1124,661,1124,674s22.72,126.57,16.23,162.27-34.69,57.22-47.36,55.38,14.9-511.34,14.9-511.34l115.21-53.55Z" style="mix-blend-mode:multiply" fill="#6e4834" opacity=".2"></path><rect width="39.39" height="617.92" x="1177.82" y="276.13" fill="#6e4834" rx="2.11" transform="rotate(-172.65 1197.542 585.043)"></rect><polygon fill="#323c57" points="1319.87 661.9 1286.13 1314.04 1259.49 1314.04 1268.37 663.44 1319.87 661.9"></polygon><polygon fill="#323c57" points="26.61 661.9 60.35 1314.04 86.99 1314.04 78.11 663.44 26.61 661.9"></polygon><path fill="#1f969c" d="M1081.49,783.45c10.56,52.95,4.62,107.94,4.62,107.94h-393l-57.15,398.94H613.28s-28-447.89-16.17-474.41C618.73,767.4,937.76,774.69,1081.49,783.45Z"></path><path fill="#22ab9c" d="M1122.88,783.45c4.69,23.5,6.13,47.4,6.28,66.72a40.94,40.94,0,0,1-41,41.22H945.83l-57.14,398.94H866S842.32,844,849.87,815.92,979.15,774.69,1122.88,783.45Z"></path><path fill="#f84a5c" d="M1101.57,675.62c6.29,32.76,21.31,107.82,21.31,107.82l-41.51-1.38-168.8-5.63s20.17-163.8,15.1-204.13c-1.29-10.4-3.17-21.46-5.18-32.37C917.72,514.25,912.27,489.38,912,476a23.61,23.61,0,0,1,.6-7.07c3.77-12.58,26.46-78.12,26.46-78.12l63-64.1,7.58-7.73,13.85-71.8,44.11-18.91-8.84,88.19a.09.09,0,0,0,0,.06l10.36,10.52,64,65S1095.28,642.87,1101.57,675.62Z"></path><path d="M1101.57,675.62c6.29,32.76,21.31,107.82,21.31,107.82l-41.51-1.38c-1.62-17.92-.12-212.35-44-235.85-33.77-18.07-94.87-9-114.86-6.28C917.72,514.25,912.27,489.38,912,476c25.14,15.8,143.84,18.31,167.21,11.18,24.67-7.49,53.88-95.11,53.88-95.11S1095.28,642.87,1101.57,675.62Z" style="mix-blend-mode:multiply" fill="#88428f" opacity=".2"></path><path fill="#f84a5c" d="M1354.85 108.59s-26.46 182.71-49.15 196.58c-12 7.35-59.69 31.29-101.92 52.18-37.51 18.57-70.72 34.76-70.72 34.76-29.12-6.36-55-43-67.06-62.84-4.41-7.19-7-12.17-7.25-12.71a.09.09 0 010-.06s9.65 1.17 20.79 2.1c12 1 25.65 1.74 30.87.42 4-1 30.2-9.32 60.38-19 45.88-14.74 100.93-32.63 100.93-32.63l63-163.8zM1009.6 319a35.48 35.48 0 01-3.38 10C991.74 358.42 939 390.85 939 390.85s-26.85-10.91-59.66-24.75C831.75 346 771.58 319.68 762.62 311.47c-15.14-13.85-73.09-248.22-73.09-248.22L711 54.41l90.74 214.2s58.53 18.7 105.21 33.24c28.08 8.78 51.88 16 56.16 16.9 5.67 1.11 17.14 1.2 27.3 1S1009.6 319 1009.6 319z"></path><path fill="#eba87f" d="M1079.51,318.6c-3.08,2.79-40.34,26.21-58.58,23.21s-34.28-22.27-30.57-22.07c10.31-.21,19.24-.72,19.24-.72l13.85-71.8,44.11-18.91-8.84,88.19S1068.37,317.67,1079.51,318.6Z"></path><path fill="#ffc393" d="M1354.85 108.59s-26.46 182.71-49.15 196.58c-12 7.35-59.69 31.29-101.92 52.18l-33-57.36c45.88-14.74 100.93-32.63 100.93-32.63l63-163.8zM906.9 301.85L879.37 366.1C831.75 346 771.58 319.68 762.62 311.47c-15.14-13.85-73.09-248.22-73.09-248.22L711 54.41l90.74 214.2S860.22 287.31 906.9 301.85z"></path><path fill="#eba87f" d="M1376.56,71.83c-.34,1-1.38,13.79-5.17,21.37s-10,12.76-17.58,16.9-17.92,6.2-19.65-7.59-.24-37.13-.24-37.13l10.58-6.65,31,9Z"></path><path fill="#ffc393" d="M1343.81 44.51a5.31 5.31 0 00-6.58 4.1l-3.31 16.77a5.3 5.3 0 003.92 6.18l.36.09a5.31 5.31 0 006.52-4.23l3-16.86A5.31 5.31 0 001343.81 44.51zM1378.75 53h0a5.42 5.42 0 00-6.67 3.78l-2.47 11.36L1372 54.59a5.39 5.39 0 00-3.93-6.15h0a5.4 5.4 0 00-6.68 4.16l-1.72 8.71 1.79-10.15a6.11 6.11 0 00-12-2.24l-3.81 19.28a6.11 6.11 0 004.51 7.11l.41.1a6.1 6.1 0 007.4-4.51 5.37 5.37 0 004.06 5l.36.09a5.37 5.37 0 006.28-3.16 5 5 0 004 5.17l.35.08a5.42 5.42 0 006.63-3.91l3-15.55A4.9 4.9 0 001378.75 53z"></path><path fill="#ffc393" d="M1334.68,103.56s-14-29.66-12.93-34.49,26.89-17.92,28.61-16.54c.86.68,2.71,4.76-.84,9.6s-12.6,10.56-13,11.08c-.68,1,6.9,10.34,7.59,15.51S1334.68,103.56,1334.68,103.56Z"></path><path fill="#eba87f" d="M668.75,27.84c.35,1,1.38,13.79,5.18,21.37s10,12.76,17.58,16.89,17.92,6.21,19.64-7.58.25-37.13.25-37.13l-10.59-6.65-31,9Z"></path><path fill="#ffc393" d="M701.51.52a5.3 5.3 0 016.57 4.1l3.32 16.77a5.31 5.31 0 01-3.93 6.18l-.35.09a5.31 5.31 0 01-6.52-4.23l-3-16.86A5.3 5.3 0 01701.51.52zM666.56 9.05h0a5.43 5.43 0 016.68 3.78l2.47 11.36-2.39-13.6a5.37 5.37 0 013.93-6.14h0a5.39 5.39 0 016.67 4.16l1.72 8.71L683.86 7.17a6.11 6.11 0 0112-2.24l3.82 19.28a6.12 6.12 0 01-4.52 7.11l-.4.1a6.09 6.09 0 01-7.4-4.51 5.37 5.37 0 01-4.06 5L683 32a5.39 5.39 0 01-6.29-3.16 5 5 0 01-4 5.17l-.36.08a5.41 5.41 0 01-6.62-3.91l-3-15.55A4.92 4.92 0 01666.56 9.05z"></path><path fill="#ffc393" d="M710.64,59.57s14-29.66,12.92-34.49S696.68,7.16,695,8.54c-.85.68-2.7,4.76.84,9.6s12.6,10.56,13,11.08c.69,1-6.89,10.34-7.58,15.51S710.64,59.57,710.64,59.57Z"></path><polygon fill="#323c57" points="1057.12 661.9 1023.38 1314.04 996.74 1314.04 1005.62 663.44 1057.12 661.9"></polygon><path fill="#2c3352" d="M971.33,649.26H897.48s6.92-27.39,37.45-25S971.33,649.26,971.33,649.26Z"></path><path fill="#a1978e" d="M888.69 1290.33V1314H821.31s1.42-9.59 9.93-11.85 25.66 4.07 34.8-11.86zM635.62 1290.33V1314H568.24s1.42-9.59 9.93-11.85 25.66 4.07 34.8-11.86z"></path><rect width="257.69" height="9.6" x="581.71" y="639.19" fill="#2c3352" transform="rotate(180 710.56 643.99)"></rect><polygon fill="#2c3352" points="134.44 190.46 697.86 190.46 753.61 577.87 741.53 589.58 190.19 577.87 123.04 202.39 134.44 190.46"></polygon><polygon fill="#252e47" points="158.35 887.1 144.2 1278.42 295.01 1278.42 280.86 887.1 158.35 887.1"></polygon><polygon fill="#454b69" points="490.19 887.12 280.86 887.12 295.01 1278.43 518.17 1278.43 490.19 887.12"></polygon><polygon fill="#5e5959" points="154.41 1265.75 284.68 1265.75 273.09 896.89 166.01 896.89 154.41 1265.75"></polygon><path fill="#403c3c" d="M203.2 927.8a3.21 3.21 0 01-2.57-1.81 12.11 12.11 0 01-.25-10.32c1.45-3 3.91-3.33 5.51-.7s1.74 7.25.3 10.31C205.4 926.93 204.3 927.8 203.2 927.8zM204.79 954.64h0c.66-4 2.9-6.31 5-5.12s3.31 5.39 2.66 9.43c-.53 3.32-2.14 5.49-3.88 5.49a2.38 2.38 0 01-1.14-.32C205.31 962.93 204.13 958.67 204.79 954.64zM209.82 944.05a2.14 2.14 0 01-1.11.3c-1.73 0-3.29-2.12-3.77-5.39-.58-4 .66-8.06 2.76-9.2s4.27 1.12 4.86 5S211.93 942.89 209.82 944.05zM178.76 931.72c-.81 2.18-2.1 3.37-3.39 3.37a2.73 2.73 0 01-2.12-1.19c-1.77-2.22-2.16-6.8-.89-10.2s3.72-4.34 5.48-2.15 2.19 6.75.93 10.17zM205.8 968.8c1.43 3.23 1.22 8.13-.5 11a3.28 3.28 0 01-2.66 1.9c-1.14 0-2.26-.91-3-2.7-1.42-3.25-1.18-8.15.54-11S204.38 965.59 205.8 968.8zM185.19 921.72a2.54 2.54 0 01-1.64.66c-1.49 0-2.88-1.61-3.48-4.29-.79-3.66.18-7.94 2.17-9.59s4.26 0 5.08 3.59S187.19 920 185.19 921.72zM193.87 919.69a1.87 1.87 0 01-.57-.08c-2.12-.59-3.54-4.27-3.17-8.22s2.4-6.67 4.51-6.09 3.55 4.21 3.19 8.16C197.5 917.07 195.79 919.69 193.87 919.69zM172.54 959.56c1.92-2.26 4.37-1.24 5.49 2.3s.46 8.35-1.46 10.65a3 3 0 01-2.22 1.25c-1.32 0-2.59-1.27-3.3-3.57C169.94 966.6 170.61 961.86 172.54 959.56zM184.12 972.38c2 1.8 2.81 6.4 1.79 10.34-.72 2.89-2.23 4.58-3.78 4.58a2.51 2.51 0 01-1.67-.7c-2-1.82-2.8-6.48-1.78-10.38S182.13 970.61 184.12 972.38zM172.29 939.07c2.2 0 3.88 3.37 3.77 7.54 0 0 0 .06 0 .1-.1 4.17-2 7.57-4.18 7.57s-3.9-3.4-3.77-7.57v-.17C168.23 942.4 170.11 939.07 172.29 939.07zM192.41 974.69c2.22-.6 4.23 2.35 4.49 6.64s-1.34 8.27-3.59 8.88a1.65 1.65 0 01-.57.09c-2 0-3.7-2.87-3.92-6.78C188.59 979.23 190.19 975.29 192.41 974.69zM181.35 939.11c2.18 0 3.88 3.4 3.79 7.54 0 .11 0 .24 0 .34-.16 4-2 7.29-4.13 7.29s-3.91-3.4-3.81-7.57v-.15C177.29 942.4 179.16 939.09 181.35 939.11zM199.17 934.9c-.76 2.36-2.12 3.68-3.47 3.68a2.67 2.67 0 01-2-1c-1.86-2.09-2.43-6.62-1.27-10.14s3.58-4.7 5.42-2.65S200.3 931.36 199.17 934.9zM191.77 966.44c-1-3.68-.3-8.36 1.64-10.45s4.38-.85 5.43 2.79.35 8.37-1.6 10.48a2.75 2.75 0 01-2 1C193.82 970.3 192.48 968.91 191.77 966.44zM183.5 969.22c-1.89-2.14-2.45-6.84-1.26-10.49s3.67-4.87 5.54-2.76 2.45 6.79 1.27 10.45c-.79 2.47-2.16 3.86-3.56 3.86A2.67 2.67 0 01183.5 969.22zM204.33 946.78c0 4.16-1.86 7.54-4.07 7.54h0c-2.2 0-3.94-3.4-3.88-7.58s1.89-7.48 4.07-7.48S204.37 942.64 204.33 946.78zM188.13 937.51a2.65 2.65 0 01-2 1c-1.38 0-2.69-1.36-3.36-3.76-1-3.54-.26-8 1.67-10.06s4.29-.8 5.31 2.73S190.07 935.47 188.13 937.51z"></path><polygon fill="#3d3a3a" points="169.89 1096.12 257.64 1096.12 257.1 1069.14 170.6 1069.14 169.89 1096.12"></polygon><polygon fill="#545050" points="178.76 1096.12 266.51 1096.12 265.85 1069.14 179.34 1069.14 178.76 1096.12"></polygon><rect width="96.16" height="26.69" x="165.13" y="1135.62" fill="#3d3a3a" transform="rotate(180 213.21 1148.965)"></rect><rect width="96.16" height="26.69" x="174.85" y="1135.62" fill="#545050" transform="rotate(180 222.93 1148.965)"></rect><rect width="96.16" height="26.69" x="165.13" y="1181.79" fill="#3d3a3a" transform="rotate(180 213.21 1195.135)"></rect><rect width="96.16" height="26.69" x="174.85" y="1181.79" fill="#545050" transform="rotate(180 222.93 1195.135)"></rect><rect width="96.16" height="26.69" x="165.13" y="1227.96" fill="#3d3a3a" transform="rotate(180 213.21 1241.305)"></rect><rect width="96.16" height="26.69" x="174.85" y="1227.96" fill="#545050" transform="rotate(180 222.93 1241.305)"></rect><path fill="#cc4468" d="M255.45,914l2,74s-26.39.52-26.17,0,5.49-39.1,5.49-39.1L232.87,914Z"></path><path fill="#99334e" d="M257.07,914l1.61,74s-7.78.52-7.56,0,5.05-39.1,5.05-39.1L251.9,914Z"></path><polygon fill="#394061" points="123.21 202.21 686.62 202.21 742.37 589.62 178.95 589.62 123.21 202.21"></polygon><polygon fill="#1b203b" points="405.02 431.68 458.96 431.68 490.27 649.26 436.33 649.26 405.02 431.68"></polygon><polygon fill="#2c3352" points="394.98 431.68 448.92 431.68 480.22 649.26 426.28 649.26 394.98 431.68"></polygon><rect width="157.2" height="10.07" x="371.28" y="639.19" fill="#2c3352" transform="rotate(180 449.88 644.225)"></rect><path fill="#353152" d="M923.24,265.63l1-.08a7.15,7.15,0,0,1,7.71,6.92l.4,13.2a7.16,7.16,0,0,1-6.5,7.34h0a7.17,7.17,0,0,1-7.76-6.37l-1.39-13.13A7.16,7.16,0,0,1,923.24,265.63Z"></path><path fill="#7a3c24" d="M1128.35,81c62.32-21.8,85.17,13,79.87,58.05s-50.45,83.13-79.91,64.33S1128.35,81,1128.35,81Z"></path><path fill="#aa4968" d="M994,119.89,967.17,227.65S956,216.47,945.74,204.9c-2.76-3.05-5.42-6.17-7.79-9.11-4-55.76,25.89-75.66,25.89-75.66s4.86-.36,10.67-.6C982.63,119.14,992.67,118.87,994,119.89Z"></path><path fill="#443f69" d="M945.74,204.9c-2.76-3.05-5.42-6.17-7.79-9.11-4-55.76,25.89-75.66,25.89-75.66s4.86-.36,10.67-.6C953.83,135.14,941.52,182.49,945.74,204.9Z"></path><path fill="#443f69" d="M924.05,274.39a3,3,0,0,1-3-2.68c-.25-2.35-5.7-58.1,28.45-103.65a3,3,0,0,1,4.8,3.6C921.61,215.27,927,270.53,927,271.08a3,3,0,0,1-2.67,3.29Z"></path><path fill="#96492c" d="M997.79,85.23s13.2-25.11,48.73-35.42,96.9,15.28,107,63.67-19.75,100.26-46.67,117.81-55.9,4-55.9,4l9.7-130.54Z"></path><path fill="#ffc393" d="M997.79,85.23c-7.31,9.16-40.17,92.13-43.47,107.29-7.8,35.87,21.21,95.26,21.21,95.26s53.7,2.27,97-54c14.06-18.3,19.74-95.2,16.58-118.68C1082,62.32,1023.44,53.14,997.79,85.23Z"></path><path fill="#96492c" d="M1029.44 108.39a13.54 13.54 0 0113.94-4.88c9 2.14 27.49 34.93 27.49 34.93S1042.24 111.45 1029.44 108.39zM1014 105.47c-5.37-1.57-31.52 1-31.52 1s16-11.19 23.24-11.5S1014 105.47 1014 105.47z"></path><path fill="#eba87f" d="M1010.85,124.87c-.54,1.19-37.6,52.17-38.08,57.71-.38,4.27,23.13,11.13,23.13,11.13s-14.87-8.31-16.28-11S1010.85,124.87,1010.85,124.87Z"></path><path fill="#272f44" d="M1022.22 146.3s11.32-13.08 23.69-11.43 12.67 15.46 12.67 15.46-7.87-9.14-14.49-9.79S1022.22 146.3 1022.22 146.3zM996.57 140.08s3.74-15-2.57-20.2-12.93 5.54-12.93 5.54 3.68-1.9 9.06-.1S996.57 140.08 996.57 140.08z"></path><path fill="#82172a" d="M976.61,207.36c16.33,5.11,50.57,2.43,50.57,2.43s-15.25,34-32.23,41.85S976.61,207.36,976.61,207.36Z"></path><path fill="#aa4968" d="M1135,173.14l-12.46,30.72a103.21,103.21,0,0,1-10.82,26.7l-12.44,30.74-17.62-1.71-6-.56c-17-1.65-22.57-29.73-9.32-62.43s36.74-49,50.13-38.26l5.46,4.34Z"></path><path fill="#443f69" d="M1135,173.14l-12.46,30.72a103.21,103.21,0,0,1-10.82,26.7l-12.44,30.74-17.62-1.71c-7.59-13.81-5.66-35.58,2.46-55.66,8.45-20.89,24.69-37.67,37.79-41.25Z"></path><path fill="#524c7e" d="M1136.42,225c-9.8,24.2-26.39,40.31-37.06,36s-11.37-27.44-1.56-51.64,26.39-40.3,37.06-36S1146.22,200.84,1136.42,225Z"></path><path fill="#5f5891" d="M1132.8,223.57c-7.07,17.46-19,29.09-26.76,26s-8.2-19.8-1.12-37.27,19-29.1,26.75-26S1139.88,206.1,1132.8,223.57Z"></path><path fill="#443f69" d="M1119.46,160.76l-14.15,1.44-5.75.57s11.63-69.7-16.45-93.91c-27.21-23.44-52.08-13-53.61-12.29a47.33,47.33,0,0,1,7.46-6.89,54.82,54.82,0,0,1,16.6-8.9c15-4.83,49.39-2.79,63.92,33.89S1119.46,160.76,1119.46,160.76Z"></path><path fill="#302c4a" d="M1105.31,162.2l-5.75.57s11.63-69.7-16.45-93.91c-27.21-23.44-52.08-13-53.61-12.29a47.33,47.33,0,0,1,7.46-6.89c.3-.12.63-.24.93-.33,15-4.86,49.38-2.82,63.92,33.86C1113,111.44,1108.13,147.22,1105.31,162.2Z"></path><path fill="#703231" d="M317.81,669.17c0,5.28,14.79,341,14.79,341H569.13l-9.85-341Z"></path><path fill="#995843" d="M63 669.17c0 5.28 16.64 341 16.64 341H345.93l-11.09-341zM277.43 1116.65V1314h248.7l-9.28-133.18c-2.56-36.8-28-65-58.42-64.93z"></path><path fill="#703231" d="M289.71,1116.65V1314h248.7l-9.27-133.18c-2.57-36.8-28-65-58.43-64.93Z"></path><polygon fill="#1d2333" points="289.36 661.9 323.1 1314.04 349.74 1314.04 340.86 663.44 289.36 661.9"></polygon><polygon fill="#1d2333" points="521.9 661.9 555.64 1314.04 582.28 1314.04 573.4 663.44 521.9 661.9"></polygon><rect width="1377.75" height="28.77" y="649.04" fill="#d6753f"></rect><rect width="350.82" height="28.77" x="1026.93" y="649.04" fill="#703231"></rect><rect width="133.23" height="8.44" x="144.2" y="1278.42" fill="#995843"></rect></g></g></svg>